<?xml version="1.0" encoding="UTF-8" standalone="no"?>
<!-- Created with Inkscape (http://www.inkscape.org/) -->

<svg
   width="250"
   height="250.00002"
   viewBox="0 0 66.145836 66.145837"
   version="1.1"
   id="svg1"
   xml:space="preserve"
   inkscape:export-filename="Sitemap.svg"
   inkscape:export-xdpi="96"
   inkscape:export-ydpi="96"
   xmlns:inkscape="http://www.inkscape.org/namespaces/inkscape"
   xmlns:sodipodi="http://sodipodi.sourceforge.net/DTD/sodipodi-0.dtd"
   xmlns="http://www.w3.org/2000/svg"
   xmlns:svg="http://www.w3.org/2000/svg"><sodipodi:namedview
     id="namedview1"
     pagecolor="#ffffff"
     bordercolor="#000000"
     borderopacity="0.25"
     inkscape:showpageshadow="2"
     inkscape:pageopacity="0.0"
     inkscape:pagecheckerboard="0"
     inkscape:deskcolor="#d1d1d1"
     inkscape:document-units="px"
     showguides="true"
     showgrid="true"><sodipodi:guide
       position="33.103833,70.515544"
       orientation="1,0"
       id="guide3"
       inkscape:locked="false" /><sodipodi:guide
       position="73.887756,32.777175"
       orientation="0,-1"
       id="guide4"
       inkscape:locked="false" /><inkscape:grid
       id="grid4"
       units="px"
       originx="0"
       originy="0"
       spacingx="0.26458334"
       spacingy="0.26458333"
       empcolor="#0099e5"
       empopacity="0.30196078"
       color="#0099e5"
       opacity="0.14901961"
       empspacing="5"
       enabled="true"
       visible="true" /><inkscape:page
       x="0"
       y="0"
       width="66.145836"
       height="66.145836"
       id="page2"
       margin="0"
       bleed="0" /></sodipodi:namedview><defs
     id="defs1" /><path
     sodipodi:type="star"
     style="display:inline;fill:#0a5678;fill-opacity:0.802667;stroke-width:0.264583"
     id="path3"
     inkscape:flatsided="true"
     sodipodi:sides="6"
     sodipodi:cx="57.203423"
     sodipodi:cy="49.65575"
     sodipodi:r1="23.030373"
     sodipodi:r2="18.631964"
     sodipodi:arg1="-2.8198421"
     sodipodi:arg2="-2.2962433"
     inkscape:rounded="0"
     inkscape:randomized="0"
     d="M 35.354893,42.372907 52.586285,27.092947 74.434815,34.37579 79.051952,56.938594 61.82056,72.218554 39.97203,64.935711 Z"
     inkscape:transform-center-x="3.928214"
     inkscape:transform-center-y="-2.4387201"
     transform="matrix(0.93082612,-1.0217126,1.0538937,0.92065738,-72.577454,45.862021)" /><g
     inkscape:label="Capa 1"
     inkscape:groupmode="layer"
     id="layer1"
     style="display:inline"
     transform="translate(-0.52966133,-0.13241533)"><g
       id="g1"
       transform="matrix(0.07933731,0,0,0.08654353,12.8597,11.024781)"><g
         id="g2">
	<path
   style="fill:#000000;fill-opacity:0.317647"
   d="M 406.069,282.483 H 264.828 v -35.31 h -17.655 v 35.31 H 105.931 c -4.875,0 -8.828,3.953 -8.828,8.828 v 44.138 h 17.655 v -35.31 h 132.414 v 35.31 h 17.655 v -35.31 h 132.414 v 35.31 h 17.655 V 291.31 c 10e-4,-4.875 -3.952,-8.827 -8.827,-8.827 z"
   id="path1" />
	<path
   style="fill:#000000;fill-opacity:0.317333"
   d="M 485.517,52.966 H 26.483 C 11.857,52.966 0,64.822 0,79.448 v 353.103 c 0,14.626 11.857,26.483 26.483,26.483 h 459.034 c 14.626,0 26.483,-11.857 26.483,-26.483 V 79.448 C 512,64.822 500.143,52.966 485.517,52.966 Z m 8.828,379.586 c 0,4.875 -3.953,8.828 -8.828,8.828 H 26.483 c -4.875,0 -8.828,-3.953 -8.828,-8.828 V 114.759 c 0,-4.875 3.953,-8.828 8.828,-8.828 h 459.034 c 4.875,0 8.828,3.953 8.828,8.828 z"
   id="path2" />
</g><circle
         style="fill:#ffffff;fill-opacity:1"
         cx="26.483"
         cy="79.447998"
         r="8.8280001"
         id="circle2" /><circle
         style="fill:#ffffff;fill-opacity:1"
         cx="52.966"
         cy="79.447998"
         r="8.8280001"
         id="circle3" /><circle
         style="fill:#ffffff;fill-opacity:1"
         cx="79.447998"
         cy="79.447998"
         r="8.8280001"
         id="circle4" /><g
         id="g8">
	<path
   style="fill:#ffffff;fill-opacity:1"
   d="m 123.586,88.276 h -8.828 c -4.875,0 -8.828,-3.953 -8.828,-8.828 v 0 c 0,-4.875 3.953,-8.828 8.828,-8.828 h 8.828 c 4.875,0 8.828,3.953 8.828,8.828 v 0 c 0,4.875 -3.953,8.828 -8.828,8.828 z"
   id="path4" />
	<path
   style="fill:#ffffff;fill-opacity:1"
   d="m 158.897,88.276 h -8.828 c -4.875,0 -8.828,-3.953 -8.828,-8.828 v 0 c 0,-4.875 3.953,-8.828 8.828,-8.828 h 8.828 c 4.875,0 8.828,3.953 8.828,8.828 v 0 c -0.001,4.875 -3.953,8.828 -8.828,8.828 z"
   id="path5" />
	<path
   style="fill:#ffffff;fill-opacity:1"
   d="m 450.207,88.276 h -8.828 c -4.875,0 -8.828,-3.953 -8.828,-8.828 v 0 c 0,-4.875 3.953,-8.828 8.828,-8.828 h 8.828 c 4.875,0 8.828,3.953 8.828,8.828 v 0 c -0.001,4.875 -3.953,8.828 -8.828,8.828 z"
   id="path6" />
	<path
   style="fill:#ffffff;fill-opacity:1"
   d="m 485.517,88.276 h -8.828 c -4.875,0 -8.828,-3.953 -8.828,-8.828 v 0 c 0,-4.875 3.953,-8.828 8.828,-8.828 h 8.828 c 4.875,0 8.828,3.953 8.828,8.828 v 0 c 0,4.875 -3.953,8.828 -8.828,8.828 z"
   id="path7" />
	<path
   style="fill:#ffffff;fill-opacity:1"
   d="M 406.069,88.276 H 194.207 c -4.875,0 -8.828,-3.953 -8.828,-8.828 v 0 c 0,-4.875 3.953,-8.828 8.828,-8.828 h 211.862 c 4.875,0 8.828,3.953 8.828,8.828 v 0 c 0,4.875 -3.953,8.828 -8.828,8.828 z"
   id="path8" />
</g><path
         style="fill:#000000;fill-opacity:0.317647"
         d="M 352.396,256 H 159.604 c -5.266,0 -9.535,-4.269 -9.535,-9.535 V 141.949 c 0,-5.266 4.269,-9.535 9.535,-9.535 h 192.792 c 5.266,0 9.535,4.269 9.535,9.535 v 104.516 c 0,5.266 -4.269,9.535 -9.535,9.535 z"
         id="path9" /><path
         style="fill:#000000;fill-opacity:0.317647"
         d="M 311.638,414.897 H 200.362 c -3.399,0 -6.155,-2.755 -6.155,-6.155 v -75.967 c 0,-3.4 2.755,-6.155 6.155,-6.155 h 111.277 c 3.4,0 6.155,2.755 6.155,6.155 v 75.967 c -10e-4,3.399 -2.756,6.155 -6.156,6.155 z"
         id="path10" /><g
         id="g13">
	<path
   style="fill:#ffffff;fill-opacity:1"
   d="M 335.448,203.034 H 176.552 c -4.875,0 -8.828,-3.953 -8.828,-8.828 v 0 c 0,-4.875 3.953,-8.828 8.828,-8.828 h 158.897 c 4.875,0 8.828,3.953 8.828,8.828 v 0 c -10e-4,4.876 -3.954,8.828 -8.829,8.828 z"
   id="path11" />
	<path
   style="fill:#ffffff;fill-opacity:1"
   d="M 317.793,167.724 H 194.207 c -4.875,0 -8.828,-3.953 -8.828,-8.828 v 0 c 0,-4.875 3.953,-8.828 8.828,-8.828 h 123.586 c 4.875,0 8.828,3.953 8.828,8.828 v 0 c 0,4.876 -3.953,8.828 -8.828,8.828 z"
   id="path12" />
	<path
   style="fill:#ffffff;fill-opacity:1"
   d="m 282.483,238.345 h -52.966 c -4.875,0 -8.828,-3.953 -8.828,-8.828 v 0 c 0,-4.875 3.953,-8.828 8.828,-8.828 h 52.966 c 4.875,0 8.828,3.953 8.828,8.828 v 0 c -10e-4,4.875 -3.953,8.828 -8.828,8.828 z"
   id="path13" />
</g><g
         id="g15">
	<path
   style="fill:#ffffff;fill-opacity:1"
   d="m 273.655,397.241 h -35.31 c -4.875,0 -8.828,-3.953 -8.828,-8.828 v 0 c 0,-4.875 3.953,-8.828 8.828,-8.828 h 35.31 c 4.875,0 8.828,3.953 8.828,8.828 v 0 c 0,4.876 -3.953,8.828 -8.828,8.828 z"
   id="path14" />
	<path
   style="fill:#ffffff;fill-opacity:1"
   d="m 291.31,361.931 h -70.62 c -4.875,0 -8.828,-3.953 -8.828,-8.828 v 0 c 0,-4.875 3.953,-8.828 8.828,-8.828 h 70.621 c 4.875,0 8.828,3.953 8.828,8.828 v 0 c -0.001,4.875 -3.954,8.828 -8.829,8.828 z"
   id="path15" />
</g><path
         style="fill:#000000;fill-opacity:0.317647"
         d="M 461.707,414.897 H 350.431 c -3.4,0 -6.155,-2.755 -6.155,-6.155 v -75.967 c 0,-3.4 2.755,-6.155 6.155,-6.155 h 111.277 c 3.4,0 6.155,2.755 6.155,6.155 v 75.967 c -10e-4,3.399 -2.756,6.155 -6.156,6.155 z"
         id="path16" /><g
         id="g18">
	<path
   style="fill:#ffffff;fill-opacity:1"
   d="m 423.724,397.241 h -35.31 c -4.875,0 -8.828,-3.953 -8.828,-8.828 v 0 c 0,-4.875 3.953,-8.828 8.828,-8.828 h 35.31 c 4.875,0 8.828,3.953 8.828,8.828 v 0 c 0,4.876 -3.953,8.828 -8.828,8.828 z"
   id="path17" />
	<path
   style="fill:#ffffff;fill-opacity:1"
   d="m 441.379,361.931 h -70.621 c -4.875,0 -8.828,-3.953 -8.828,-8.828 v 0 c 0,-4.875 3.953,-8.828 8.828,-8.828 h 70.621 c 4.875,0 8.828,3.953 8.828,8.828 v 0 c 0,4.875 -3.953,8.828 -8.828,8.828 z"
   id="path18" />
</g><path
         style="fill:#000000;fill-opacity:0.317647"
         d="M 161.569,414.897 H 50.293 c -3.399,0 -6.155,-2.755 -6.155,-6.155 v -75.967 c 0,-3.4 2.755,-6.155 6.155,-6.155 H 161.57 c 3.399,0 6.155,2.755 6.155,6.155 v 75.967 c -0.001,3.399 -2.756,6.155 -6.156,6.155 z"
         id="path19" /><g
         id="g21">
	<path
   style="fill:#ffffff;fill-opacity:1"
   d="m 123.586,397.241 h -35.31 c -4.875,0 -8.828,-3.953 -8.828,-8.828 v 0 c 0,-4.875 3.953,-8.828 8.828,-8.828 h 35.31 c 4.875,0 8.828,3.953 8.828,8.828 v 0 c 0,4.876 -3.953,8.828 -8.828,8.828 z"
   id="path20" />
	<path
   style="fill:#ffffff;fill-opacity:1"
   d="m 141.241,361.931 h -70.62 c -4.875,0 -8.828,-3.953 -8.828,-8.828 v 0 c 0,-4.875 3.953,-8.828 8.828,-8.828 h 70.621 c 4.875,0 8.828,3.953 8.828,8.828 v 0 c -0.001,4.875 -3.954,8.828 -8.829,8.828 z"
   id="path21" />
</g></g></g></svg>
